<?xml version="1.0" encoding="UTF-8"?>
<svg
  width="1000px"
  height="1000px"
  viewBox="0 0 1000 1000"
  version="1.1"
  xmlns="http://www.w3.org/2000/svg"
  xmlns:xlink="http://www.w3.org/1999/xlink">
  <!-- Generator: Sketch 53.2 (72643) - https://sketchapp.com -->
  <title>secondary-interflux-logo-2</title>
  <desc>Created with Sketch.</desc>
  <g
    id="secondary-interflux-logo-2"
    stroke="none"
    stroke-width="1"
    fill="none"
    fill-rule="evenodd">
    <g id="interflux-logo-white-on-blue-square">
      <rect id="bg" fill="#23578C" x="0" y="0" width="1000" height="1000"></rect>
      <g
        id="interflux-logo-white"
        transform="translate(40.000000, 384.000000)"
        fill="#FFFFFF"
        stroke-width="1">
        <g id="Group">
          <g id="logo" transform="translate(-0.000000, 0.000000)">
            <g id="Group-3">
              <path
                d="M261.983725,113.574566 L261.983725,101.900252 L258.481264,102.089732 C257.32227,94.0182032 255.12967,86.1564324 251.918215,78.5961679 C250.985522,76.4005232 249.974378,74.2484257 248.887465,72.1412052 C261.637401,77.4692586 263.770995,95.1238375 263.770995,95.1238375 L275.302597,95.1238375 L270.997859,71.8772625 C280.509854,84.5435228 285.777123,98.7688404 286.249169,113.574566 L261.983725,113.574566 Z M250.596285,179.674607 C238.328788,188.799912 223.914622,195.758826 208.194283,200.294387 C216.714579,195.832624 224.485235,190.128934 231.370133,183.272738 C236.403726,178.26115 240.817423,172.776194 244.57904,166.873716 L250.592597,166.873716 L250.592597,163.364341 C250.592597,163.364341 249.04135,163.363676 246.919489,163.000339 C248.775488,159.75391 250.444748,156.39346 251.918215,152.923643 C256.037889,143.224911 258.48294,133.02954 259.216824,122.531666 L261.983725,122.682253 L261.983725,117.945245 L286.249169,117.945245 C285.506904,141.225395 272.913534,163.072143 250.596285,179.674607 L250.596285,179.674607 Z M211.879125,182.955276 C215.347725,178.028788 218.395573,172.651536 220.999202,166.872386 L238.75658,166.873716 C227.915614,182.643464 212.20835,194.846994 193.807273,201.31891 C200.507108,196.651378 206.572966,190.491274 211.879125,182.955276 L211.879125,182.955276 Z M178.763153,203.101022 C183.049787,198.193482 186.875438,191.230579 190.134165,182.408442 C191.901991,177.621571 193.456591,172.414519 194.785226,166.871721 L215.68399,166.872386 C206.886099,185.33475 193.465643,198.908853 177.837836,204.121224 C178.148286,203.791794 178.456726,203.453057 178.763153,203.101022 L178.763153,203.101022 Z M165.761102,206.224788 L165.761102,166.873051 L188.065611,166.873716 L188.065611,163.364341 C188.065611,163.364341 172.50385,163.364341 172.50385,151.79208 L172.50385,117.945245 L195.520116,117.945245 C195.317284,141.717379 191.815493,163.952063 185.605809,180.763953 C180.129337,195.591618 173.000705,204.677033 165.761102,206.224788 L165.761102,206.224788 Z M141.507726,180.763953 C139.920606,176.465741 138.510503,171.813169 137.287139,166.872386 L161.352769,166.873051 L161.352769,206.224788 C154.113501,204.677033 146.984533,195.591618 141.507726,180.763953 L141.507726,180.763953 Z M100.444417,117.945245 L126.771711,117.945245 C126.907156,134.108248 128.545571,149.605411 131.506587,163.267606 C130.488067,163.364341 129.849062,163.364341 129.849062,163.364341 L129.849062,166.871721 L132.328644,166.871721 C133.65728,172.414519 135.21188,177.621571 136.980041,182.408442 C140.238432,191.230579 144.064084,198.193482 148.350717,203.101022 C148.657145,203.453057 148.965919,203.791794 149.2757,204.121224 C121.796118,194.956028 101.139076,159.938404 100.444417,117.945245 L100.444417,117.945245 Z M72.5092173,117.945245 L95.621703,117.945245 C95.8114601,129.970264 97.5682222,141.643581 100.852764,152.672333 C104.227826,164.00525 109.066297,174.193307 115.23441,182.955276 C120.540569,190.491274 126.606763,196.652043 133.306262,201.31891 C98.5672969,189.101086 73.4285001,156.455623 72.5092173,117.945245 L72.5092173,117.945245 Z M76.51725,179.674607 C54.2003362,163.072143 41.6069667,141.225395 40.8643659,117.945245 L67.6854971,117.945245 C67.9563872,130.061348 70.4785478,141.818103 75.1956553,152.923643 C80.0247396,164.29346 86.9384703,174.504454 95.7440728,183.272738 C102.628636,190.128934 110.399291,195.832624 118.919587,200.294387 C103.199248,195.758826 88.7847468,188.799912 76.51725,179.674607 L76.51725,179.674607 Z M76.51725,51.8458692 C88.7847468,42.7198989 103.199248,35.7609851 118.919587,31.2254248 C110.399291,35.6868551 102.628636,41.3908774 95.7440728,48.2467405 C86.9384703,57.0153575 80.0247396,67.2260194 75.1956553,78.5961679 C70.4785478,89.7017087 67.9563872,101.458464 67.6854971,113.574566 L40.8643659,113.574566 C41.6069667,90.2947489 54.2003362,68.4473364 76.51725,51.8458692 L76.51725,51.8458692 Z M115.23441,48.5652004 C109.066297,57.3261717 104.227826,67.5142289 100.852764,78.8471462 C97.5682222,89.8768949 95.8114601,101.549215 95.621703,113.574566 L72.5092173,113.574566 C73.4285001,75.0638559 98.5672969,42.418725 133.306598,30.2009014 C126.607098,34.8681007 120.540569,41.0288702 115.23441,48.5652004 L115.23441,48.5652004 Z M148.350717,28.4184568 C144.064084,33.3269942 140.238432,40.2892322 136.980041,49.1117015 C135.212215,53.8979077 133.657615,59.1046273 132.329315,64.6460954 L129.849062,64.6457629 L129.849062,68.1561351 C129.849062,68.1561351 130.487732,68.1561351 131.506587,68.2522049 C128.545571,81.9147327 126.907156,97.4118954 126.771711,113.574566 L100.444417,113.574566 C101.139076,71.5817397 121.796118,36.5634509 149.2757,27.3989197 C148.965919,27.7276847 148.657145,28.0670872 148.350717,28.4184568 L148.350717,28.4184568 Z M145.410823,113.574566 L131.593755,113.574566 C131.728864,97.6911295 133.337777,82.4951408 136.242134,69.1437596 C140.535473,70.3996484 145.410823,73.2508285 145.410823,79.7283959 L145.410823,113.574566 Z M131.593755,117.945245 L145.410823,117.945245 L145.410823,151.79208 C145.410823,158.268983 140.535473,161.120495 136.242134,162.376384 C133.337777,149.025003 131.728864,133.828349 131.593755,117.945245 L131.593755,117.945245 Z M161.352769,25.2950234 L161.352769,64.647425 L137.287474,64.6460954 C138.511173,59.7053131 139.920941,55.0534052 141.507726,50.7555263 C146.984533,35.9278608 154.113501,26.842446 161.352769,25.2950234 L161.352769,25.2950234 Z M185.605809,50.7555263 C191.815493,67.5674164 195.317284,89.8021001 195.520116,113.574566 L172.50385,113.574566 L172.50385,79.7283959 C172.50385,68.1561351 188.065611,68.1561351 188.065611,68.1561351 L188.065611,64.6484223 L165.761102,64.647425 L165.761102,25.2950234 C173.000705,26.8427784 180.129337,35.9278608 185.605809,50.7555263 L185.605809,50.7555263 Z M215.68399,64.6467602 L194.784891,64.6457629 C193.45592,59.1046273 191.901655,53.8979077 190.134165,49.1117015 C186.875438,40.2892322 183.049787,33.3269942 178.763153,28.4184568 C178.456726,28.0670872 178.148286,27.7276847 177.838171,27.3989197 C193.465643,32.610958 206.886099,46.1843969 215.68399,64.6467602 L215.68399,64.6467602 Z M238.757251,64.647425 L220.998866,64.6467602 C218.395238,58.8686079 215.347725,53.4910237 211.879125,48.5652004 C206.572966,41.0288702 200.506772,34.8681007 193.807273,30.2009014 C212.209021,36.67315 227.916285,48.8770118 238.757251,64.647425 L238.757251,64.647425 Z M235.031172,103.359915 L235.031172,79.7283959 C235.031172,72.4317417 235.425102,69.09988 242.343862,70.3005868 C248.005061,79.9943331 251.914192,90.8226344 253.637093,102.352345 L235.031172,103.359915 Z M235.031172,121.222922 L254.397798,122.27138 C253.37559,136.553209 249.018887,149.931184 242.099792,161.636081 C238.460546,160.106609 235.031172,157.224514 235.031172,151.79208 L235.031172,121.222922 Z M207.937809,117.945245 L207.937809,151.79208 C207.937809,159.944055 200.215767,162.352782 195.651203,163.065162 C198.584392,149.45283 200.207385,134.028135 200.34216,117.945245 L207.937809,117.945245 Z M207.937809,113.574566 L200.34216,113.574566 C200.207385,97.492009 198.584392,82.0676467 195.651203,68.4549821 C200.215767,69.1670291 207.937809,71.5760885 207.937809,79.7283959 L207.937809,113.574566 Z M250.596285,51.8458692 C255.950387,55.8289448 260.742928,60.1141917 264.948428,64.6484223 L244.57971,64.647425 C240.818429,58.7449471 236.404061,53.2596582 231.370133,48.2467405 C224.485235,41.3912098 216.714579,35.6868551 208.194283,31.2254248 C223.914622,35.7609851 238.328788,42.7198989 250.596285,51.8458692 L250.596285,51.8458692 Z M291.073225,113.574566 C290.711144,101.364056 287.315296,89.5241956 280.96212,78.3501759 C274.494285,66.9747087 265.251503,56.7706952 253.490584,48.0213586 C241.780625,39.3102506 228.156331,32.4746652 212.995876,27.7044152 C198.004392,22.9873527 182.124134,20.4975149 165.761102,20.2920783 L165.761102,0.154310107 L161.352769,0.154310107 L161.352769,20.2920783 C144.989736,20.4975149 129.109814,22.9873527 114.117994,27.7044152 C98.9575395,32.4746652 85.3332456,39.3102506 73.6232861,48.0213586 C61.8623671,56.7706952 52.6192503,66.9747087 46.1517506,78.3501759 C39.7985745,89.5241956 36.4027265,101.364056 36.0406457,113.574566 L-0.000134103981,113.574566 L-0.000134103981,117.945245 L36.0406457,117.945245 C36.4027265,130.156088 39.7985745,141.995283 46.1517506,153.169635 C52.6192503,164.545435 61.8623671,174.749116 73.6232861,183.498785 C85.3332456,192.209893 98.9575395,199.045146 114.117994,203.815396 C129.109814,208.532126 144.989736,211.022296 161.352769,211.228065 L161.352769,231.365501 L165.761102,231.365501 L165.761102,211.228065 C182.124134,211.022296 198.004392,208.532126 212.995876,203.815396 C228.156331,199.045146 241.780625,192.209893 253.490584,183.498785 C265.251503,174.749116 274.494285,164.545435 280.96212,153.169635 C287.315296,141.995283 290.711144,130.156088 291.073225,117.945245 L327.113669,117.945245 L327.113669,113.574566 L291.073225,113.574566 Z"
                id="Fill-1"></path>
            </g>
            <path
              d="M392.264352,117.387887 L392.264352,118.914573 L363.078016,118.914573 L363.078016,117.387887 L364.930432,117.387887 C366.54933,117.387887 367.85308,117.099118 368.841013,116.521245 C369.554613,116.13622 370.102944,115.475841 370.487679,114.540444 C370.789445,113.880066 370.940663,112.146781 370.940663,109.340591 L370.940663,72.529091 C370.940663,69.6678972 370.789445,67.8799445 370.487679,67.1642268 C370.185244,66.4491799 369.57502,65.8230108 368.656006,65.2863902 C367.735987,64.7501051 366.494798,64.4817948 364.930432,64.4817948 L363.078016,64.4817948 L363.078016,62.9547739 L392.264352,62.9547739 L392.264352,64.4817948 L390.411936,64.4817948 C388.792369,64.4817948 387.489288,64.7705637 386.501021,65.348437 C385.787087,65.734133 385.225039,66.3945117 384.81354,67.3292377 C384.511104,67.9896163 384.360556,69.7229008 384.360556,72.529091 L384.360556,109.340591 C384.360556,112.202456 384.51813,113.990408 384.833947,114.705455 C385.149095,115.421173 385.766679,116.046671 386.686363,116.583292 C387.605712,117.119577 388.84757,117.387887 390.411936,117.387887 L392.264352,117.387887 Z"
              id="Fill-4"></path>
            <path
              d="M416.960859,62.9547739 L444.814699,97.5922507 L444.814699,73.5807894 C444.814699,70.2312481 444.328801,67.9658643 443.357683,66.7849728 C442.025187,65.1930453 439.790599,64.4238592 436.654259,64.4787532 L436.654259,62.9547739 L455.306837,62.9547739 L455.306837,64.4787532 C452.919646,64.7813399 451.316454,65.1722927 450.49794,65.6526156 C449.67875,66.1332733 449.040925,66.9155135 448.582773,68.0000058 C448.12496,69.0851674 447.895885,70.9448708 447.895885,73.5807894 L447.895885,120.080402 L446.48015,120.080402 L408.300649,73.5807894 L408.300649,109.083182 C408.300649,112.295823 409.04303,114.465142 410.528131,115.590805 C412.012554,116.717137 413.713196,117.279467 415.628363,117.279467 L416.960859,117.279467 L416.960859,118.803111 L396.934166,118.803111 L396.934166,117.279467 C400.042421,117.252354 402.207643,116.620403 403.429492,115.384952 C404.650665,114.149167 405.261421,112.0488 405.261421,109.083182 L405.261421,69.6682494 L404.053783,68.1854406 C402.860356,66.7026317 401.805661,65.728597 400.889697,65.2613282 C399.973732,64.7947287 398.655109,64.533982 396.934166,64.4787532 L396.934166,62.9547739 L416.960859,62.9547739 Z"
              id="Fill-6"></path>
            <path
              d="M511.344602,62.9547739 L511.344602,78.1002186 L509.860748,78.1002186 C508.980819,74.6068187 508.006097,72.0957699 506.934574,70.568749 C505.86305,69.041728 504.392259,67.8246055 502.524545,66.9167106 C501.479818,66.4213427 499.652634,66.1738265 497.042993,66.1738265 L492.880163,66.1738265 L492.880163,109.340591 C492.880163,112.20212 493.037927,113.990073 493.35379,114.705455 C493.669988,115.421173 494.287982,116.046671 495.208441,116.582956 C496.128899,117.119577 497.385653,117.387887 498.980043,117.387887 L500.834693,117.387887 L500.834693,118.914573 L471.571949,118.914573 L471.571949,117.387887 L473.426599,117.387887 C475.047115,117.387887 476.352773,117.098783 477.341898,116.521245 C478.055688,116.13622 478.619754,115.475841 479.03175,114.540444 C479.333545,113.880066 479.48528,112.146781 479.48528,109.340591 L479.48528,66.1738265 L475.446048,66.1738265 C471.681144,66.1738265 468.947235,66.9720496 467.24432,68.5671542 C464.85374,70.7958065 463.342084,73.9732711 462.710358,78.1002186 L461.144104,78.1002186 L461.144104,62.9547739 L511.344602,62.9547739 Z"
              id="Fill-8"></path>
            <path
              d="M537.553018,66.1738265 L537.553018,88.9540404 L538.677772,88.9540404 C542.260599,88.9540404 544.85681,87.8398819 546.468439,85.6112296 C548.078713,83.3829127 549.106296,80.095441 549.551525,75.7481436 L551.134374,75.7481436 L551.134374,105.048633 L549.551525,105.048633 C549.218026,101.857417 548.516494,99.2440752 547.447266,97.2076001 C546.3777,95.1717958 545.13546,93.803078 543.718852,93.1014466 C542.302244,92.3998152 540.246402,92.0489995 537.553018,92.0489995 L537.553018,107.81357 C537.553018,110.895114 537.684725,112.779994 537.948477,113.467539 C538.212229,114.155419 538.704859,114.719877 539.427721,115.15957 C540.14923,115.599935 541.315629,115.819614 542.927258,115.819614 L546.301859,115.819614 C551.578249,115.819614 555.807081,114.609534 558.987339,112.188034 C562.167258,109.76754 564.451302,106.080286 565.840823,101.128284 L567.382366,101.128284 L564.841004,118.914573 L516.014416,118.914573 L516.014416,117.387887 L517.889119,117.387887 C519.527156,117.387887 520.846931,117.099118 521.84675,116.521245 C522.568259,116.13622 523.123864,115.475841 523.513228,114.540444 C523.818287,113.880066 523.971662,112.146781 523.971662,109.340591 L523.971662,72.529091 C523.971662,69.9982542 523.901577,68.4437315 523.763098,67.8658582 C523.484788,66.9029597 522.971843,66.1600756 522.221894,65.6372059 C521.165871,64.8674908 519.722177,64.4817948 517.889119,64.4817948 L516.014416,64.4817948 L516.014416,62.9547739 L563.299461,62.9547739 L563.299461,79.5034814 L561.716273,79.5034814 C560.91012,75.4593747 559.778933,72.5569282 558.32068,70.7958065 C556.862427,69.0356911 554.800491,67.7421001 552.134194,66.9167106 C550.57843,66.4213427 547.661924,66.1738265 543.385692,66.1738265 L537.553018,66.1738265 Z"
              id="Fill-10"></path>
            <path
              d="M595.441281,65.9672276 L595.441281,90.4807259 L597.813099,90.4807259 C601.66874,90.4807259 604.553538,90.1299102 606.467494,89.4282788 C608.381789,88.7266474 609.88624,87.4615644 610.982537,85.6316883 C612.077483,83.8021475 612.625632,81.415863 612.625632,78.471493 C612.625632,74.2073718 611.619959,71.0574091 609.609291,69.020934 C607.597608,66.9854651 604.359437,65.9672276 599.893427,65.9672276 L595.441281,65.9672276 Z M595.441281,93.4106742 L595.441281,109.09274 C595.441281,112.119615 595.628957,114.024283 596.003294,114.808419 C596.37797,115.592556 597.036357,116.218725 597.979471,116.686256 C598.922585,117.154457 600.684033,117.387552 603.263816,117.387552 L603.263816,118.914573 L574.387087,118.914573 L574.387087,117.387552 C576.994599,117.387552 578.76281,117.147079 579.692736,116.665462 C580.621309,116.184516 581.273948,115.558347 581.648285,114.787625 C582.022622,114.01791 582.209622,112.119615 582.209622,109.09274 L582.209622,72.7766072 C582.209622,69.7504026 582.022622,67.8450642 581.648285,67.0609274 C581.273948,66.2767906 580.614546,65.6512922 579.671432,65.1830908 C578.728318,64.7155601 576.96687,64.4814594 574.387087,64.4814594 L574.387087,62.9547739 L600.600847,62.9547739 C607.424811,62.9547739 612.417666,63.4229753 615.58009,64.3577013 C618.742176,65.2934334 621.321958,67.0196747 623.319101,69.5370959 C625.316581,72.0545172 626.315152,75.0049241 626.315152,78.3889876 C626.315152,82.5159351 624.817126,85.9275004 621.821413,88.6236834 C619.907457,90.3298014 617.230624,91.609306 613.790913,92.4615266 L627.355316,111.403897 C629.130629,113.852899 630.392623,115.37992 631.141636,115.984625 C632.279188,116.837516 633.596639,117.305047 635.094665,117.387552 L635.094665,118.914573 L617.327674,118.914573 L599.144414,93.4106742 L595.441281,93.4106742 Z"
              id="Fill-12"></path>
            <path
              d="M657.3661,66.1738265 L657.3661,89.1603039 L658.958146,89.1603039 C661.407423,89.1603039 663.407515,88.7890296 664.958757,88.0461455 C666.509666,87.3032614 667.822383,86.0515939 668.898233,84.2908077 C669.972425,82.5303568 670.673403,80.1501092 671.000172,77.151071 L672.428667,77.151071 L672.428667,105.254896 L671.000172,105.254896 C670.482981,99.9457066 669.07439,96.4442574 666.775394,94.7522256 C664.475404,93.0601939 661.869876,92.2143457 658.958146,92.2143457 L657.3661,92.2143457 L657.3661,109.340591 C657.3661,112.202456 657.522353,113.990408 657.835852,114.705455 C658.148024,115.421173 658.760426,116.046671 659.672726,116.583292 C660.583699,117.119577 661.815469,117.387887 663.366711,117.387887 L665.203585,117.387887 L665.203585,118.914573 L636.262119,118.914573 L636.262119,117.387887 L638.098993,117.387887 C639.70464,117.387887 640.99712,117.099118 641.976764,116.521245 C642.684377,116.13622 643.228771,115.475841 643.609615,114.540444 C643.908849,113.880066 644.058798,112.146781 644.058798,109.340591 L644.058798,72.529091 C644.058798,69.6678972 643.908849,67.8799445 643.609615,67.1642268 C643.310381,66.4491799 642.704614,65.8230108 641.793641,65.2863902 C640.881341,64.7501051 639.650234,64.4817948 638.098993,64.4817948 L636.262119,64.4817948 L636.262119,62.9547739 L682.960256,62.9547739 L682.960256,79.0084489 L681.2866,79.0084489 C680.905757,75.2393602 679.932416,72.4465856 678.368568,70.6307957 C676.803062,68.8150059 674.537904,67.5358366 671.571437,66.7929525 C669.938587,66.38009 666.918045,66.1738265 662.509481,66.1738265 L657.3661,66.1738265 Z"
              id="Fill-14"></path>
            <path
              d="M740.165474,99.2709062 L738.078144,118.914573 L688.797523,118.914573 L688.797523,117.387887 L690.639363,117.387887 C692.248687,117.387887 693.545659,117.098783 694.527951,116.521245 C695.236812,116.13622 695.782345,115.475841 696.165217,114.540109 C696.464595,113.880066 696.615282,112.146781 696.615282,109.340256 L696.615282,72.529091 C696.615282,69.6678972 696.464595,67.8799445 696.165217,67.1642268 C695.864175,66.4488445 695.257436,65.8230108 694.343335,65.2863902 C693.429234,64.7497697 692.194799,64.4817948 690.639363,64.4817948 L688.797523,64.4817948 L688.797523,62.9547739 L718.390378,62.9547739 L718.390378,64.4817948 L715.975395,64.4817948 C714.364741,64.4817948 713.069432,64.7705637 712.087139,65.3481016 C711.376948,65.7337976 710.818109,66.3941763 710.408959,67.3292377 C710.10825,67.989281 709.958561,69.7225654 709.958561,72.529091 L709.958561,108.184845 C709.958561,111.046709 710.122554,112.868871 710.449874,113.653008 C710.777194,114.437145 711.417863,115.021726 712.373544,115.406751 C713.055128,115.654603 714.706697,115.778361 717.326255,115.778361 L721.951313,115.778361 C724.898524,115.778361 727.354089,115.256162 729.319007,114.210087 C731.283592,113.164683 732.981731,111.513904 734.414422,109.25775 C735.847112,107.002267 737.204292,103.673207 738.487294,99.2709062 L740.165474,99.2709062 Z"
              id="Fill-16"></path>
            <path
              d="M746.002741,62.9547739 L774.687441,62.9547739 L774.687441,64.4776557 L773.25309,64.4776557 C771.095068,64.4776557 769.612761,64.7037633 768.807499,65.1566476 C768.000905,65.6091973 767.427098,66.2336692 767.08641,67.0293942 C766.744058,67.8254536 766.57388,69.8142644 766.57388,72.9968298 L766.57388,100.325083 C766.57388,105.319185 766.94887,108.625173 767.700847,110.243716 C768.451492,111.862928 769.688025,113.206863 771.409114,114.276861 C773.130202,115.347193 775.302211,115.882025 777.924807,115.882025 C780.929718,115.882025 783.49037,115.203033 785.608428,113.844714 C787.724821,112.486731 789.309369,110.613984 790.361737,108.227144 C791.412773,105.839969 791.939291,101.683067 791.939291,95.7564373 L791.939291,72.9968298 C791.939291,70.5006148 791.679529,68.7168395 791.160671,67.6465075 C790.641481,66.5765099 789.985748,65.8356395 789.193475,65.4242306 C787.964269,64.7934036 786.229526,64.4776557 783.989246,64.4776557 L783.989246,62.9547739 L803.207959,62.9547739 L803.207959,64.4776557 L802.060678,64.4776557 C800.503439,64.4776557 799.205962,64.7934036 798.167913,65.4242306 C797.129532,66.0557265 796.378554,67.0023014 795.91398,68.2639553 C795.558972,69.1422965 795.381135,70.7196984 795.381135,72.9968298 L795.381135,94.1927491 C795.381135,100.75054 794.951196,105.483749 794.090652,108.391707 C793.230107,111.300334 791.133363,113.975496 787.800419,116.417191 C784.467475,118.858886 779.918978,120.080402 774.154597,120.080402 C769.346671,120.080402 765.631078,119.435192 763.008483,118.145777 C759.429764,116.390098 756.902747,114.140059 755.427766,111.395995 C753.952452,108.652601 753.214795,104.961962 753.214795,100.325083 L753.214795,72.9968298 C753.214795,69.7868371 753.037291,67.7906678 752.682283,67.0086565 C752.326943,66.2266451 751.712506,65.6028422 750.838307,65.1359099 C749.964109,64.669981 748.352253,64.4505629 746.002741,64.4776557 L746.002741,62.9547739 Z"
              id="Fill-18"></path>
            <path
              d="M841.63017,86.1062621 L856.97699,109.010234 C859.520787,112.806825 861.332926,115.11161 862.414073,115.922578 C863.494219,116.734552 864.773121,117.222541 866.250444,117.387887 L866.250444,118.914573 L839.127058,118.914573 L839.127058,117.387887 C841.288352,117.222541 842.683305,116.892519 843.312584,116.397152 C843.941864,115.902119 844.256337,115.297415 844.256337,114.581362 C844.256337,114.086329 844.160628,113.646636 843.96921,113.26094 C843.586039,112.43555 842.628614,110.895114 841.0966,108.63896 L832.971989,96.5472214 L824.477881,106.988181 C821.933751,110.15223 820.661852,112.298041 820.661852,113.425951 C820.661852,114.224174 820.989998,114.967058 821.646623,115.654603 C822.303248,116.342483 823.274347,116.837516 824.559918,117.140036 C825.134507,117.305047 826.310696,117.387887 828.089153,117.387887 L828.089153,118.914573 L806.710319,118.914573 L806.710319,117.387887 C809.145068,117.030699 811.059919,116.370321 812.455205,115.406751 C814.28802,114.141668 816.845823,111.500489 820.128282,107.483213 L831.16652,93.9472948 L817.009896,73.0241234 C814.684529,69.5853918 813.35794,67.6733456 813.029461,67.287985 C812.290799,66.38009 811.566144,65.7337976 810.854828,65.3481016 C810.143512,64.9634117 809.158741,64.6743074 807.900181,64.4814594 L807.900181,62.9547739 L835.51612,62.9547739 L835.51612,64.4814594 L834.120833,64.4814594 C832.534462,64.4814594 831.426302,64.7363542 830.797356,65.2451375 C830.168077,65.7545917 829.853604,66.3941763 829.853604,67.1638914 C829.853604,67.7696019 829.949313,68.2924716 830.140731,68.7321651 L832.971989,73.0241234 L839.865719,83.5888409 L845.73366,76.3669342 C848.742664,72.6528491 850.247333,70.0529224 850.247333,68.5671542 C850.247333,67.8242701 850.034905,67.1370604 849.611717,66.5038482 C849.186861,65.8713067 848.578591,65.3759388 847.785239,65.01808 C846.991886,64.6608919 845.761006,64.4814594 844.092264,64.4814594 L844.092264,62.9547739 L864.56803,62.9547739 L864.56803,64.4814594 C862.953979,64.5092966 861.654735,64.708517 860.669964,65.0801267 C859.685193,65.4514011 858.631725,66.1466601 857.510227,67.1638914 C856.798911,67.8242701 855.020787,69.8741607 852.175856,73.3128924 L841.63017,86.1062621 Z"
              id="Fill-20"></path>
            <path
              d="M372.773169,155.734349 L372.773169,169.09861 L380.258061,169.09861 C382.200432,169.09861 383.49813,168.807816 384.151154,168.225896 C385.021964,167.461277 385.50764,166.115069 385.608183,164.18661 L386.537448,164.18661 L386.537448,175.954985 L385.608183,175.954985 C385.373361,174.309363 385.139208,173.254281 384.90472,172.788745 C384.603427,172.207156 384.109401,171.74991 383.422974,171.417337 C382.736213,171.084764 381.681019,170.918643 380.258061,170.918643 L372.773169,170.918643 L372.773169,182.063652 C372.773169,183.559733 372.839975,184.469583 372.974254,184.794199 C373.108199,185.117819 373.342353,185.375787 373.677382,185.566776 C374.012078,185.758097 374.648401,185.853591 375.586351,185.853591 L381.363359,185.853591 C383.288695,185.853591 384.686934,185.72096 385.557745,185.454702 C386.428221,185.189108 387.265962,184.665215 388.069633,183.883685 C389.107791,182.853139 390.170667,181.299695 391.259597,179.221363 L392.264352,179.221363 L389.325577,187.698492 L363.078016,187.698492 L363.078016,186.776042 L364.283522,186.776042 C365.087193,186.776042 365.84911,186.585384 366.569274,186.202743 C367.105054,185.937149 367.469144,185.53826 367.661878,185.005745 C367.854278,184.474226 367.950478,183.385323 367.950478,181.7397 L367.950478,159.773635 C367.950478,157.629318 367.733026,156.307647 367.297454,155.809285 C366.694868,155.144471 365.690113,154.811898 364.283522,154.811898 L363.078016,154.811898 L363.078016,153.889447 L389.325577,153.889447 L389.70236,161.294253 L388.722657,161.294253 C388.370926,159.515667 387.981783,158.294464 387.554896,157.629318 C387.127675,156.964836 386.495694,156.457521 385.658287,156.108369 C384.988561,155.859022 383.808108,155.734349 382.116925,155.734349 L372.773169,155.734349 Z"
              id="Fill-22"></path>
            <path
              d="M424.127161,178.348741 L424.953048,178.523149 L422.049627,187.698492 L395.766712,187.698492 L395.766712,186.776051 L397.043325,186.776051 C398.478391,186.776051 399.504675,186.310851 400.122176,185.379788 C400.472371,184.847942 400.647801,183.61813 400.647801,181.68969 L400.647801,159.873381 C400.647801,157.762906 400.413783,156.441248 399.946746,155.909071 C399.295956,155.177616 398.32826,154.81222 397.043325,154.81222 L395.766712,154.81222 L395.766712,153.889447 L411.136001,153.889447 L411.136001,154.81222 C409.333763,154.795642 408.069467,154.961761 407.343778,155.310909 C406.617756,155.659726 406.121092,156.100389 405.854119,156.632236 C405.587145,157.164414 405.453658,158.435672 405.453658,160.447006 L405.453658,181.68969 C405.453658,183.069374 405.587145,184.017015 405.854119,184.531951 C406.054515,184.8811 406.3631,185.139065 406.780537,185.304853 C407.197309,185.471303 408.498888,185.554197 410.685275,185.554197 L413.163269,185.554197 C415.766761,185.554197 417.593965,185.36321 418.645215,184.980904 C419.696465,184.598598 420.656172,183.92119 421.524002,182.949012 C422.3915,181.976171 423.25933,180.442968 424.127161,178.348741"
              id="Fill-24"></path>
            <path
              d="M439.318126,155.734349 L439.318126,169.09861 L446.803104,169.09861 C448.745163,169.09861 450.043543,168.807816 450.696575,168.225896 C451.567061,167.461277 452.053077,166.115069 452.153286,164.18661 L453.082562,164.18661 L453.082562,175.954985 L452.153286,175.954985 C451.918462,174.309363 451.684306,173.254281 451.45015,172.788745 C451.148519,172.207156 450.654153,171.74991 449.967718,171.417337 C449.281617,171.084764 448.226746,170.918643 446.803104,170.918643 L439.318126,170.918643 L439.318126,182.063652 C439.318126,183.559733 439.384932,184.469583 439.519213,184.794199 C439.653159,185.117819 439.887316,185.375787 440.222349,185.566776 C440.557049,185.758097 441.193379,185.853591 442.131339,185.853591 L447.90808,185.853591 C449.834105,185.853591 451.232027,185.72096 452.103181,185.454702 C452.973333,185.189108 453.811084,184.665215 454.615098,183.883685 C455.652934,182.853139 456.71649,181.299695 457.804431,179.221363 L458.809198,179.221363 L455.870722,187.698492 L429.622862,187.698492 L429.622862,186.776042 L430.828381,186.776042 C431.632061,186.776042 432.393987,186.585384 433.114159,186.202743 C433.649945,185.937149 434.01404,185.53826 434.206776,185.005745 C434.399178,184.474226 434.495379,183.385323 434.495379,181.7397 L434.495379,159.773635 C434.495379,157.629318 434.277925,156.307647 433.842348,155.809285 C433.239755,155.144471 432.234988,154.811898 430.828381,154.811898 L429.622862,154.811898 L429.622862,153.889447 L455.870722,153.889447 L456.247176,161.294253 L455.26813,161.294253 C454.916394,159.515667 454.526914,158.294464 454.099353,157.629318 C453.672795,156.964836 453.040808,156.457521 452.203725,156.108369 C451.533658,155.859022 450.352856,155.734349 448.661655,155.734349 L439.318126,155.734349 Z"
              id="Fill-26"></path>
            <path
              d="M492.291522,152.723618 L493.062492,164.094134 L492.291522,164.094134 C491.264334,160.69036 489.797111,158.240442 487.891507,156.744054 C485.985572,155.247994 483.698451,154.499472 481.030142,154.499472 C478.792941,154.499472 476.770634,155.062996 474.964541,156.189059 C473.157788,157.31545 471.736519,159.111969 470.700735,161.578287 C469.665282,164.044932 469.147225,167.111511 469.147225,170.778351 C469.147225,173.803928 469.636189,176.426708 470.613787,178.646361 C471.591384,180.866342 473.062904,182.568066 475.026365,183.752187 C476.990816,184.93598 479.231984,185.528041 481.75086,185.528041 C483.938469,185.528041 485.8692,185.063577 487.543711,184.13432 C489.217231,183.20572 491.057045,181.359672 493.062492,178.597159 L493.8328,179.090489 C492.14242,182.066864 490.170364,184.245516 487.916303,185.626772 C485.661911,187.0077 482.985667,187.698492 479.886912,187.698492 C474.301349,187.698492 469.97572,185.642845 466.910025,181.532206 C464.622572,178.473827 463.479011,174.87259 463.479011,170.729149 C463.479011,167.390977 464.232789,164.324726 465.741338,161.529085 C467.249555,158.733771 469.32476,156.567584 471.968934,155.029538 C474.611786,153.492477 477.500278,152.723618 480.632425,152.723618 C483.06898,152.723618 485.471482,153.315679 487.841917,154.499472 C488.537839,154.861269 489.035068,155.042003 489.333604,155.042003 C489.780912,155.042003 490.170364,154.886197 490.50163,154.573603 C490.932407,154.129475 491.238878,153.512814 491.421702,152.723618 L492.291522,152.723618 Z"
              id="Fill-28"></path>
            <path
              d="M527.30456,153.889447 L527.68895,161.818069 L526.714503,161.818069 C526.526572,160.421806 526.270084,159.424429 525.945041,158.826267 C525.414672,157.862379 524.710014,157.151814 523.829363,156.69424 C522.948711,156.23733 521.790085,156.008875 520.353825,156.008875 L515.455669,156.008875 L515.455669,181.839231 C515.455669,183.917211 515.686235,185.213669 516.147707,185.728605 C516.797111,186.426902 517.79782,186.776051 519.148812,186.776051 L520.353825,186.776051 L520.353825,187.698492 L505.607174,187.698492 L505.607174,186.776051 L506.838108,186.776051 C508.308475,186.776051 509.351478,186.343677 509.967115,185.479261 C510.342978,184.947415 510.531251,183.734182 510.531251,181.839231 L510.531251,156.008875 L506.350373,156.008875 C504.726522,156.008875 503.571988,156.124926 502.888477,156.357692 C501.999299,156.673351 501.238364,157.280465 500.605673,158.178038 C499.972641,159.075612 499.597119,160.289176 499.477061,161.818069 L498.502614,161.818069 L498.912925,153.889447 L527.30456,153.889447 Z"
              id="Fill-30"></path>
            <path
              d="M540.878895,170.320315 C541.196964,170.320315 541.472646,170.324625 541.707276,170.332915 C541.941572,170.341536 542.133815,170.345183 542.284339,170.345183 C545.529777,170.345183 547.976871,169.647218 549.625623,168.250955 C551.272706,166.854693 552.097416,165.076456 552.097416,162.91525 C552.097416,160.804776 551.432575,159.08788 550.102226,157.766885 C548.77221,156.444896 547.010983,155.784398 544.819545,155.784398 C543.84865,155.784398 542.535323,155.94256 540.878895,156.258219 L540.878895,170.320315 Z M565.04746,187.698492 L555.962303,187.698492 L544.442735,171.890986 C543.589323,171.924806 542.895111,171.941054 542.359768,171.941054 C542.142159,171.941054 541.908197,171.937075 541.657212,171.928785 C541.406228,171.920164 541.1469,171.907896 540.878895,171.890986 L540.878895,181.714558 C540.878895,183.842607 541.112857,185.163933 541.58145,185.678869 C542.217254,186.410324 543.170793,186.776051 544.442735,186.776051 L545.773084,186.776051 L545.773084,187.698492 L531.19131,187.698492 L531.19131,186.776051 L532.471596,186.776051 C533.910415,186.776051 534.93905,186.310851 535.5585,185.379788 C535.90961,184.864521 536.085833,183.64333 536.085833,181.714558 L536.085833,159.873381 C536.085833,157.745996 535.850869,156.424338 535.382944,155.909071 C534.730453,155.177616 533.759892,154.81222 532.471596,154.81222 L531.19131,154.81222 L531.19131,153.889447 L543.589323,153.889447 C547.203226,153.889447 549.867596,154.15106 551.583099,154.67528 C553.2976,155.198505 554.753107,156.162725 555.949954,157.567277 C557.145466,158.971829 557.74389,160.646283 557.74389,162.59097 C557.74389,164.668951 557.062027,166.472719 555.69897,168.001611 C554.334578,169.531166 552.222574,170.611438 549.361622,171.242757 L556.388843,180.941657 C557.994874,183.169178 559.37562,184.648334 560.53008,185.379788 C561.68454,186.111243 563.190111,186.576443 565.04746,186.776051 L565.04746,187.698492 Z"
              id="Fill-32"></path>
            <path
              d="M584.157536,154.524073 C581.064509,154.524073 578.582764,155.634063 576.713319,157.853717 C574.385158,160.616229 573.220908,164.661266 573.220908,169.988828 C573.220908,175.44825 574.427537,179.649748 576.841136,182.592667 C578.69329,184.829377 581.140792,185.947239 584.183303,185.947239 C587.429235,185.947239 590.110671,184.722117 592.226257,182.272199 C594.342521,179.821954 595.400652,175.957979 595.400652,170.67962 C595.400652,164.95746 594.236063,160.69036 591.907563,157.878646 C590.038457,155.642592 587.454662,154.524073 584.157536,154.524073 M584.642357,152.723618 C589.129162,152.723618 593.016889,154.372204 596.305201,157.669046 C599.594191,160.965889 601.238516,165.080793 601.238516,170.013756 C601.238516,175.094653 599.581646,179.312224 596.267568,182.666797 C592.953151,186.021042 588.941675,187.698492 584.234497,187.698492 C579.475108,187.698492 575.476854,186.062371 572.239059,182.790129 C569.001603,179.518215 567.382366,175.283588 567.382366,170.087559 C567.382366,164.776398 569.251812,160.443695 572.991041,157.089122 C576.237312,154.178677 580.120971,152.723618 584.642357,152.723618"
              id="Fill-34"></path>
            <path
              d="M603.573423,153.889447 L612.881431,153.889447 L633.850015,179.701977 L633.850015,159.854 C633.850015,157.738678 633.613548,156.418923 633.141622,155.894396 C632.517657,155.183888 631.530749,154.828465 630.181909,154.828465 L628.993516,154.828465 L628.993516,153.889447 L640.931932,153.889447 L640.931932,154.828465 L639.717976,154.828465 C638.267216,154.828465 637.239271,155.268609 636.632125,156.148221 C636.26111,156.689962 636.07577,157.924997 636.07577,159.854 L636.07577,188.864322 L635.165219,188.864322 L612.552799,161.148441 L612.552799,182.341488 C612.552799,184.45681 612.780184,185.776566 613.235628,186.300755 C613.876075,187.011601 614.862982,187.367023 616.195004,187.367023 L617.409297,187.367023 L617.409297,188.306041 L605.470881,188.306041 L605.470881,187.367023 L606.659274,187.367023 C608.12618,187.367023 609.163543,186.92688 609.770689,186.04693 C610.141031,185.505527 610.327044,184.270492 610.327044,182.341488 L610.327044,158.407332 C609.331727,157.239804 608.577587,156.46989 608.063279,156.097591 C607.548634,155.725291 606.793821,155.378645 605.799178,155.056975 C605.310433,154.904748 604.568066,154.828465 603.573423,154.828465 L603.573423,153.889447 Z"
              id="Fill-36"></path>
            <path
              d="M659.611187,186.776051 L659.611187,187.698492 L644.434293,187.698492 L644.434293,186.776051 L645.688004,186.776051 C647.150842,186.776051 648.213145,186.368877 648.874913,185.554197 C649.292817,185.022682 649.501942,183.743134 649.501942,181.714558 L649.501942,159.873381 C649.501942,158.161791 649.388347,157.03112 649.162547,156.482695 C648.98816,156.067563 648.631396,155.709794 648.091212,155.410382 C647.325229,155.011497 646.523812,154.81222 645.688004,154.81222 L644.434293,154.81222 L644.434293,153.889447 L659.611187,153.889447 L659.611187,154.81222 L658.330727,154.81222 C656.885606,154.81222 655.831988,155.219726 655.170567,156.033743 C654.734947,156.566252 654.517137,157.8458 654.517137,159.873381 L654.517137,181.714558 C654.517137,183.426812 654.630384,184.557151 654.856879,185.105576 C655.030571,185.521371 655.396367,185.878477 655.954267,186.177558 C656.702534,186.576443 657.494919,186.776051 658.330727,186.776051 L659.611187,186.776051 Z"
              id="Fill-38"></path>
            <path
              d="M693.093495,152.723618 L693.864473,164.094134 L693.093495,164.094134 C692.066296,160.69036 690.599057,158.240442 688.693432,156.744054 C686.787477,155.247994 684.50033,154.499472 681.831992,154.499472 C679.594767,154.499472 677.572438,155.062996 675.766326,156.189059 C673.959553,157.31545 672.538268,159.111969 671.502473,161.578287 C670.467009,164.044932 669.948946,167.111511 669.948946,170.778351 C669.948946,173.803928 670.437915,176.426708 671.415523,178.646361 C672.393131,180.866342 673.864668,182.568066 675.828149,183.752187 C677.792623,184.93598 680.033815,185.528041 682.552718,185.528041 C684.740351,185.528041 686.671103,185.063577 688.345633,184.13432 C690.019171,183.20572 691.859005,181.359672 693.864473,178.597159 L694.63479,179.090489 C692.944391,182.066864 690.972314,184.245516 688.718228,185.626772 C686.463811,187.0077 683.787539,187.698492 680.688749,187.698492 C675.103126,187.698492 670.77745,185.642845 667.711721,181.532206 C665.424574,178.473827 664.281001,174.87259 664.281001,170.729149 C664.281001,167.390977 665.034457,164.324726 666.542691,161.529085 C668.051256,158.733771 670.126482,156.567584 672.770686,155.029538 C675.413567,153.492477 678.30209,152.723618 681.434271,152.723618 C683.870852,152.723618 686.273381,153.315679 688.643841,154.499472 C689.339771,154.861269 689.837006,155.042003 690.135545,155.042003 C690.582857,155.042003 690.972314,154.886197 691.303583,154.573603 C691.734365,154.129475 692.040839,153.512814 692.223665,152.723618 L693.093495,152.723618 Z"
              id="Fill-40"></path>
            <path
              d="M721.605322,152.723618 L721.605322,164.291597 L720.694183,164.291597 C720.398546,162.071616 719.86915,160.303962 719.106321,158.988636 C718.342838,157.672983 717.255889,156.62925 715.844492,155.856127 C714.432768,155.083332 712.972263,154.696935 711.462648,154.696935 C709.755287,154.696935 708.34389,155.218801 707.228131,156.262861 C706.111716,157.307578 705.554164,158.495307 705.554164,159.827034 C705.554164,160.846821 705.90644,161.775749 706.612302,162.614147 C707.629516,163.84747 710.050596,165.492119 713.875216,167.54711 C716.992991,169.224561 719.122364,170.51135 720.263005,171.407149 C721.403974,172.303604 722.281718,173.359801 722.897547,174.576723 C723.51272,175.793646 723.821126,177.06797 723.821126,178.399697 C723.821126,180.932273 722.839925,183.114861 720.878834,184.948445 C718.917742,186.782029 716.39386,187.698492 713.308497,187.698492 C712.340392,187.698492 711.429254,187.624362 710.576064,187.476429 C710.067293,187.39377 709.012757,187.093967 707.412126,186.576365 C705.812478,186.058107 704.798865,185.799306 704.37227,185.799306 C703.961718,185.799306 703.637598,185.922639 703.39991,186.169303 C703.161894,186.415968 702.985428,186.925698 702.870186,187.698492 L701.959702,187.698492 L701.959702,176.229245 L702.870186,176.229245 C703.29678,178.630289 703.871685,180.426479 704.593589,181.618473 C705.315493,182.811122 706.419139,183.801389 707.904527,184.590584 C709.389915,185.380108 711.019356,185.774705 712.791868,185.774705 C714.843321,185.774705 716.463595,185.231847 717.653673,184.146785 C718.843424,183.061395 719.438954,181.77887 719.438954,180.298883 C719.438954,179.476886 719.213052,178.646361 718.761575,177.807964 C718.310426,176.969239 717.60882,176.188243 716.656757,175.46465 C716.016702,174.971321 714.269071,173.922997 711.413211,172.320005 C708.557351,170.716685 706.52587,169.438424 705.320077,168.484567 C704.113302,167.531366 703.198235,166.478777 702.574876,165.327457 C701.951517,164.176793 701.639511,162.910341 701.639511,161.529085 C701.639511,159.128369 702.558179,157.060913 704.396498,155.325733 C706.235144,153.591208 708.573393,152.723618 711.413211,152.723618 C713.185724,152.723618 715.064312,153.159545 717.050613,154.030744 C717.969608,154.44207 718.617849,154.647405 718.995662,154.647405 C719.422257,154.647405 719.770604,154.520465 720.042014,154.265272 C720.312442,154.010407 720.529831,153.496413 720.694183,152.723618 L721.605322,152.723618 Z"
              id="Fill-42"></path>
            <path
              d="M903.585132,74.8367496 C905.073482,74.8367496 906.161931,74.6918556 906.849479,74.4017338 C907.536692,74.1119458 908.06321,73.7053078 908.429367,73.1821536 C908.795525,72.6589995 908.978269,72.0633983 908.978269,71.3950163 C908.978269,70.3740812 908.6218,69.516736 907.909197,68.8233147 C907.196259,68.1302273 906.28454,67.7833497 905.174709,67.7833497 C904.694963,67.7833497 904.165104,67.8845085 903.585132,68.0858243 L903.585132,74.8367496 Z M899.100373,66.9513777 L906.404477,66.9513777 C908.233593,66.9513777 909.628065,67.364359 910.586555,68.1899877 C911.545046,69.0156165 912.024792,70.0148509 912.024792,71.1870233 C912.024792,72.1451933 911.699727,72.9868472 911.0506,73.711651 C910.40047,74.4367888 909.325384,74.994664 907.824005,75.3852769 L911.778571,81.0201178 C912.258318,81.6884998 912.686949,82.1485549 913.065468,82.4006171 C913.305007,82.5518543 913.63976,82.6466698 914.068391,82.6843956 L914.068391,83.3083746 L910.586555,83.3083746 L905.023369,75.6496918 L903.585132,75.6496918 L903.585132,81.4928595 C903.660969,81.9091793 903.841041,82.2116539 904.12468,82.4006171 C904.408652,82.5899141 904.972922,82.6843956 905.818158,82.6843956 L905.818158,83.3083746 L898.873195,83.3083746 L898.873195,82.6843956 C899.478891,82.6843956 899.907522,82.6119486 900.160091,82.4667208 C900.412659,82.3221606 900.595404,82.1108291 900.708993,81.8333938 C900.796857,81.6317441 900.84129,81.0458248 900.84129,80.0746343 L900.84129,70.1847842 C900.84129,69.2519873 900.822248,68.7037939 900.784496,68.53987 C900.696632,68.2497482 900.535268,68.0263977 900.302411,67.8684833 C900.068886,67.7109027 899.667983,67.6321125 899.100373,67.6321125 L899.100373,66.9513777 Z M906.518066,62.9424212 C904.462106,62.9424212 902.456258,63.4719186 900.500858,64.5309134 C898.545123,65.5899083 897.019022,67.0996103 895.921552,69.0596856 C894.823748,71.0200947 894.27518,73.0656375 894.27518,75.1959799 C894.27518,77.3139696 894.814728,79.3438211 895.893489,81.2848665 C896.971916,83.2265796 898.482649,84.7392864 900.42502,85.8233205 C902.367392,86.9076885 904.398964,87.4495386 906.518066,87.4495386 C908.637502,87.4495386 910.672081,86.9076885 912.621134,85.8233205 C914.570187,84.7392864 916.083927,83.2265796 917.162688,81.2848665 C918.241115,79.3438211 918.779995,77.3139696 918.779995,75.1959799 C918.779995,73.0656375 918.231427,71.0200947 917.133957,69.0596856 C916.036487,67.0996103 914.510052,65.5899083 912.554651,64.5309134 C910.598917,63.4719186 908.58739,62.9424212 906.518066,62.9424212 L906.518066,62.9424212 Z M906.518066,61.7889447 C908.776482,61.7889447 910.977435,62.365516 913.122262,63.5193263 C915.267089,64.6728027 916.941524,66.324394 918.146569,68.4734325 C919.350946,70.6231386 919.953302,72.8639878 919.953302,75.1959799 C919.953302,77.5156193 919.360301,79.7407772 918.174632,81.8711196 C916.988964,84.0017959 915.329563,85.6563919 913.197765,86.8349076 C911.066302,88.0140911 908.83929,88.6030151 906.518066,88.6030151 C904.197176,88.6030151 901.973505,88.0140911 899.848055,86.8349076 C897.722271,85.6563919 896.066211,84.0017959 894.880543,81.8711196 C893.694874,79.7407772 893.101873,77.5156193 893.101873,75.1959799 C893.101873,72.8639878 893.704229,70.6231386 894.909274,68.4734325 C896.113985,66.324394 897.788086,64.6728027 899.932913,63.5193263 C902.07774,62.365516 904.273014,61.7889447 906.518066,61.7889447 L906.518066,61.7889447 Z"
              id="Fill-44"></path>
          </g>
        </g>
      </g>
    </g>
  </g>
</svg>